<svg xmlns="http://www.w3.org/2000/svg" xmlns:xlink="http://www.w3.org/1999/xlink" zoomAndPan="magnify" preserveAspectRatio="xMidYMid meet" version="1.0" viewBox="-2.53 114.7 380.06 108.64"><defs><g/></defs><g fill="#202424" fill-opacity="1"><g transform="translate(-5.221722, 222.157132)"><g><path d="M 2.6875 -59.640625 L 2.6875 -61.359375 C 5.476562 -61.710938 8 -62.425781 10.25 -63.5 C 12.507812 -64.570312 14.460938 -65.609375 16.109375 -66.609375 C 17.765625 -67.617188 18.945312 -68.125 19.65625 -68.125 C 20.375 -68.125 20.820312 -67.875 21 -67.375 C 21.1875 -66.875 21.28125 -66.015625 21.28125 -64.796875 L 21.28125 -17.625 C 21.28125 -14.039062 21.796875 -11.140625 22.828125 -8.921875 C 23.867188 -6.703125 25.210938 -5 26.859375 -3.8125 C 28.503906 -2.632812 30.296875 -1.828125 32.234375 -1.390625 C 34.171875 -0.960938 36.035156 -0.75 37.828125 -0.75 C 40.972656 -0.75 43.976562 -1.234375 46.84375 -2.203125 C 49.707031 -3.171875 52.320312 -4.351562 54.6875 -5.75 C 57.050781 -7.144531 59.09375 -8.488281 60.8125 -9.78125 L 60.8125 -7.421875 C 58.882812 -6.203125 56.71875 -4.910156 54.3125 -3.546875 C 51.914062 -2.179688 49.25 -1.050781 46.3125 -0.15625 C 43.375 0.738281 40.113281 1.1875 36.53125 1.1875 C 32.445312 1.1875 28.664062 0.472656 25.1875 -0.953125 C 21.71875 -2.390625 18.941406 -4.578125 16.859375 -7.515625 C 14.785156 -10.453125 13.75 -14.179688 13.75 -18.703125 L 13.75 -58.453125 C 13.75 -59.316406 13.625 -60.015625 13.375 -60.546875 C 13.125 -61.085938 12.601562 -61.359375 11.8125 -61.359375 C 10.664062 -61.359375 9.269531 -61.070312 7.625 -60.5 C 5.976562 -59.925781 4.332031 -59.640625 2.6875 -59.640625 Z M 53.625 -67.046875 L 71.890625 -67.265625 L 71.890625 -7.953125 C 71.890625 -5.804688 72.242188 -4.210938 72.953125 -3.171875 C 73.671875 -2.128906 74.890625 -1.609375 76.609375 -1.609375 C 77.472656 -1.609375 78.515625 -1.695312 79.734375 -1.875 C 80.953125 -2.0625 81.914062 -2.332031 82.625 -2.6875 L 82.625 0.109375 L 64.359375 0.109375 L 64.359375 -58.984375 C 64.359375 -61.140625 64 -62.734375 63.28125 -63.765625 C 62.570312 -64.804688 61.359375 -65.328125 59.640625 -65.328125 C 58.773438 -65.328125 57.75 -65.238281 56.5625 -65.0625 C 55.382812 -64.882812 54.40625 -64.613281 53.625 -64.25 Z M 53.625 -67.046875 "/></g></g></g><g fill="#202424" fill-opacity="1"><g transform="translate(69.350199, 222.157132)"><g><path d="M 42.34375 -68.234375 C 48.5 -68.234375 53.296875 -66.566406 56.734375 -63.234375 C 60.171875 -59.898438 61.890625 -55.40625 61.890625 -49.75 L 61.890625 -8.0625 C 61.890625 -5.90625 62.25 -4.304688 62.96875 -3.265625 C 63.6875 -2.234375 64.90625 -1.71875 66.625 -1.71875 C 67.476562 -1.71875 68.515625 -1.804688 69.734375 -1.984375 C 70.953125 -2.160156 71.921875 -2.429688 72.640625 -2.796875 L 72.640625 0 L 43.625 0 L 43.625 -2.796875 L 54.375 -1.609375 L 54.375 -50.828125 C 54.375 -54.765625 53.742188 -57.84375 52.484375 -60.0625 C 51.234375 -62.28125 49.601562 -63.875 47.59375 -64.84375 C 45.59375 -65.8125 43.375 -66.296875 40.9375 -66.296875 C 37.070312 -66.296875 33.898438 -65.328125 31.421875 -63.390625 C 28.953125 -61.460938 27.003906 -59.421875 25.578125 -57.265625 L 25.578125 -59.640625 C 26.285156 -60.929688 27.375 -62.238281 28.84375 -63.5625 C 30.3125 -64.882812 32.175781 -65.992188 34.4375 -66.890625 C 36.695312 -67.785156 39.332031 -68.234375 42.34375 -68.234375 Z M 65.4375 -59.640625 C 66.15625 -60.929688 67.25 -62.238281 68.71875 -63.5625 C 70.1875 -64.882812 72.046875 -65.992188 74.296875 -66.890625 C 76.554688 -67.785156 79.191406 -68.234375 82.203125 -68.234375 C 88.359375 -68.234375 93.15625 -66.566406 96.59375 -63.234375 C 100.039062 -59.898438 101.765625 -55.40625 101.765625 -49.75 L 101.765625 -24.171875 L 101.859375 -10.09375 C 101.859375 -9.238281 102 -8.539062 102.28125 -8 C 102.570312 -7.46875 103.078125 -7.203125 103.796875 -7.203125 C 104.941406 -7.203125 106.25 -7.773438 107.71875 -8.921875 C 109.1875 -10.066406 110.492188 -11.101562 111.640625 -12.03125 L 111.640625 -9.453125 C 106.835938 -6.015625 103.304688 -3.398438 101.046875 -1.609375 C 98.796875 0.179688 97.097656 1.078125 95.953125 1.078125 C 95.234375 1.078125 94.785156 0.820312 94.609375 0.3125 C 94.429688 -0.1875 94.34375 -1.039062 94.34375 -2.25 L 94.34375 -23.96875 C 94.34375 -26.1875 94.34375 -28.851562 94.34375 -31.96875 C 94.34375 -35.082031 94.320312 -38.285156 94.28125 -41.578125 C 94.25 -44.878906 94.234375 -47.960938 94.234375 -50.828125 C 94.234375 -54.765625 93.601562 -57.84375 92.34375 -60.0625 C 91.09375 -62.28125 89.460938 -63.875 87.453125 -64.84375 C 85.453125 -65.8125 83.238281 -66.296875 80.8125 -66.296875 C 76.9375 -66.296875 73.765625 -65.328125 71.296875 -63.390625 C 68.828125 -61.460938 66.875 -59.421875 65.4375 -57.265625 Z M 3.765625 -2.796875 L 14.5 -1.609375 L 14.5 -59.09375 C 14.5 -61.25 14.140625 -62.84375 13.421875 -63.875 C 12.710938 -64.914062 11.5 -65.4375 9.78125 -65.4375 C 8.914062 -65.4375 7.890625 -65.347656 6.703125 -65.171875 C 5.523438 -64.992188 4.546875 -64.722656 3.765625 -64.359375 L 3.765625 -67.15625 L 22.03125 -67.15625 L 22.03125 -8.0625 C 22.03125 -5.90625 22.382812 -4.304688 23.09375 -3.265625 C 23.8125 -2.234375 25.03125 -1.71875 26.75 -1.71875 C 27.613281 -1.71875 28.65625 -1.804688 29.875 -1.984375 C 31.09375 -2.160156 32.054688 -2.429688 32.765625 -2.796875 L 32.765625 0 L 3.765625 0 Z M 3.765625 -2.796875 "/></g></g></g><g fill="#202424" fill-opacity="1"><g transform="translate(172.934397, 222.157132)"><g><path d="M 3.765625 0 L 3.765625 -2.796875 L 14.5 -1.609375 L 14.5 -59.09375 C 14.5 -61.25 14.140625 -62.84375 13.421875 -63.875 C 12.710938 -64.914062 11.5 -65.4375 9.78125 -65.4375 C 8.914062 -65.4375 7.890625 -65.347656 6.703125 -65.171875 C 5.523438 -64.992188 4.546875 -64.722656 3.765625 -64.359375 L 3.765625 -67.15625 L 22.03125 -67.15625 L 22.03125 -8.0625 C 22.03125 -5.90625 22.382812 -4.304688 23.09375 -3.265625 C 23.8125 -2.234375 25.03125 -1.71875 26.75 -1.71875 C 27.613281 -1.71875 28.65625 -1.804688 29.875 -1.984375 C 31.09375 -2.160156 32.054688 -2.429688 32.765625 -2.796875 L 32.765625 0 Z M 25.78125 -54.90625 L 24.28125 -56.3125 C 25.644531 -57.8125 27.4375 -59.492188 29.65625 -61.359375 C 31.875 -63.222656 34.6875 -64.832031 38.09375 -66.1875 C 41.5 -67.550781 45.597656 -68.234375 50.390625 -68.234375 C 52.398438 -68.234375 54.28125 -68.144531 56.03125 -67.96875 C 57.789062 -67.789062 59.222656 -67.609375 60.328125 -67.421875 C 61.441406 -67.242188 62 -67.15625 62 -67.15625 L 62 -53.71875 C 61.570312 -54.582031 60.691406 -55.765625 59.359375 -57.265625 C 58.035156 -58.773438 56.226562 -60.140625 53.9375 -61.359375 C 51.644531 -62.578125 48.851562 -63.1875 45.5625 -63.1875 C 41.625 -63.1875 38.398438 -62.71875 35.890625 -61.78125 C 33.378906 -60.851562 31.351562 -59.742188 29.8125 -58.453125 C 28.28125 -57.160156 26.9375 -55.976562 25.78125 -54.90625 Z M 25.78125 -54.90625 "/></g></g></g><g fill="#202424" fill-opacity="1"><g transform="translate(226.338112, 222.157132)"><g><path d="M 39.75 1.078125 C 32.664062 1.078125 26.597656 -0.476562 21.546875 -3.59375 C 16.492188 -6.71875 12.625 -10.910156 9.9375 -16.171875 C 7.25 -21.429688 5.90625 -27.253906 5.90625 -33.640625 C 5.90625 -40.015625 7.25 -45.816406 9.9375 -51.046875 C 12.625 -56.273438 16.492188 -60.445312 21.546875 -63.5625 C 26.597656 -66.675781 32.664062 -68.234375 39.75 -68.234375 C 46.914062 -68.234375 53.003906 -66.675781 58.015625 -63.5625 C 63.035156 -60.445312 66.890625 -56.273438 69.578125 -51.046875 C 72.265625 -45.816406 73.609375 -40.015625 73.609375 -33.640625 C 73.609375 -27.253906 72.265625 -21.429688 69.578125 -16.171875 C 66.890625 -10.910156 63.035156 -6.71875 58.015625 -3.59375 C 53.003906 -0.476562 46.914062 1.078125 39.75 1.078125 Z M 39.75 -66.515625 C 34.09375 -66.515625 29.328125 -65.046875 25.453125 -62.109375 C 21.585938 -59.171875 18.671875 -55.226562 16.703125 -50.28125 C 14.734375 -45.34375 13.75 -39.796875 13.75 -33.640625 C 13.75 -27.546875 14.734375 -21.988281 16.703125 -16.96875 C 18.671875 -11.957031 21.585938 -7.984375 25.453125 -5.046875 C 29.328125 -2.109375 34.09375 -0.640625 39.75 -0.640625 C 45.488281 -0.640625 50.269531 -2.109375 54.09375 -5.046875 C 57.925781 -7.984375 60.828125 -11.957031 62.796875 -16.96875 C 64.773438 -21.988281 65.765625 -27.546875 65.765625 -33.640625 C 65.765625 -39.796875 64.773438 -45.34375 62.796875 -50.28125 C 60.828125 -55.226562 57.925781 -59.171875 54.09375 -62.109375 C 50.269531 -65.046875 45.488281 -66.515625 39.75 -66.515625 Z M 23.109375 -74.78125 L 39.75 -84.78125 L 56.40625 -74.78125 L 54.796875 -72.53125 L 39.75 -81.5625 L 24.71875 -72.53125 Z M 23.109375 -74.78125 "/></g></g></g><g fill="#202424" fill-opacity="1"><g transform="translate(295.10759, 222.157132)"><g><path d="M 3.765625 -104.65625 L 3.765625 -107.453125 L 22.03125 -107.453125 L 22.03125 -8.0625 C 22.03125 -5.90625 22.382812 -4.304688 23.09375 -3.265625 C 23.8125 -2.234375 25.03125 -1.71875 26.75 -1.71875 C 27.613281 -1.71875 28.65625 -1.804688 29.875 -1.984375 C 31.09375 -2.160156 32.054688 -2.429688 32.765625 -2.796875 L 32.765625 0 L 3.765625 0 L 3.765625 -2.796875 L 14.5 -1.609375 L 14.5 -99.390625 C 14.5 -101.546875 14.140625 -103.140625 13.421875 -104.171875 C 12.710938 -105.210938 11.5 -105.734375 9.78125 -105.734375 C 8.914062 -105.734375 7.890625 -105.644531 6.703125 -105.46875 C 5.523438 -105.289062 4.546875 -105.019531 3.765625 -104.65625 Z M 48.5625 -66.296875 C 45.414062 -66.296875 42.410156 -65.8125 39.546875 -64.84375 C 36.679688 -63.875 34.066406 -62.691406 31.703125 -61.296875 C 29.335938 -59.898438 27.296875 -58.554688 25.578125 -57.265625 L 25.578125 -59.640625 C 27.503906 -60.929688 29.664062 -62.238281 32.0625 -63.5625 C 34.46875 -64.882812 37.140625 -65.992188 40.078125 -66.890625 C 43.015625 -67.785156 46.273438 -68.234375 49.859375 -68.234375 C 53.941406 -68.234375 57.703125 -67.515625 61.140625 -66.078125 C 64.578125 -64.648438 67.351562 -62.46875 69.46875 -59.53125 C 71.582031 -56.59375 72.640625 -52.867188 72.640625 -48.359375 L 72.640625 -10.09375 C 72.640625 -9.238281 72.78125 -8.539062 73.0625 -8 C 73.351562 -7.46875 73.859375 -7.203125 74.578125 -7.203125 C 75.722656 -7.203125 77.03125 -7.773438 78.5 -8.921875 C 79.96875 -10.066406 81.273438 -11.101562 82.421875 -12.03125 L 82.421875 -9.453125 C 79.410156 -7.804688 76.863281 -6.175781 74.78125 -4.5625 C 72.707031 -2.957031 71.039062 -1.613281 69.78125 -0.53125 C 68.53125 0.539062 67.515625 1.078125 66.734375 1.078125 C 66.015625 1.078125 65.5625 0.820312 65.375 0.3125 C 65.195312 -0.1875 65.109375 -1.039062 65.109375 -2.25 L 65.109375 -49.421875 C 65.109375 -53.003906 64.585938 -55.90625 63.546875 -58.125 C 62.515625 -60.351562 61.175781 -62.054688 59.53125 -63.234375 C 57.882812 -64.421875 56.09375 -65.226562 54.15625 -65.65625 C 52.21875 -66.082031 50.351562 -66.296875 48.5625 -66.296875 Z M 48.5625 -66.296875 "/></g></g></g></svg>